# simple_cube.obj with normals

# Vertices
v  1.0  1.0 -1.0
v  1.0 -1.0 -1.0
v  1.0  1.0  1.0
v  1.0 -1.0  1.0
v -1.0  1.0 -1.0
v -1.0 -1.0 -1.0
v -1.0  1.0  1.0
v -1.0 -1.0  1.0

# Normals
vn  0.0  0.0  1.0
vn  0.0  0.0 -1.0
vn  0.0  1.0  0.0
vn  0.0 -1.0  0.0
vn  1.0  0.0  0.0
vn -1.0  0.0  0.0

# Faces
# Each face is defined with vertex//normal indices
f 7//1 8//1 4//1
f 7//1 4//1 3//1
f 1//2 2//2 6//2
f 1//2 6//2 5//2
f 5//3 7//3 3//3
f 5//3 3//3 1//3
f 2//4 4//4 8//4
f 2//4 8//4 6//4
f 3//5 4//5 2//5
f 3//5 2//5 1//5
f 5//6 6//6 8//6
f 5//6 8//6 7//6
